<svg width="576" height="263" viewBox="0 0 576 263" fill="none" xmlns="http://www.w3.org/2000/svg">
<path d="M182.694 49.2591C115.572 80.4762 77.6092 107.041 31.192 156.135C66.3798 216.171 103.299 242.001 181.269 262.19C168.598 248.29 142.555 209.618 139.75 166.129C136.946 122.639 168.564 69.6396 182.694 49.2591Z" fill="#4478BB"/>
<path d="M557.445 114.707C518.366 49.2186 486.067 26.8319 414.263 6.49448C427.383 22.7392 457.426 65.2375 456.362 107.928C455.231 153.336 431.641 198.577 418.02 218.147C477.064 187.06 508.01 165.867 557.445 114.707Z" fill="#FF9B4A"/>
<path d="M334.318 198.233C363.574 127.143 366.296 92.9842 332.055 41.4136L395.958 46.7859C422.229 75.441 424.723 99.9641 414.601 150.778L334.318 198.233Z" fill="#003E73"/>
<path d="M321.657 192.381C282.429 203.711 244.708 195.892 213.166 167.023L188.734 212.431C212.452 245.822 231.436 258.122 281.014 262.317C327.449 264.236 371.225 232.002 389.798 202.966C410.065 171.284 420.342 147.101 419.985 105.677C394.308 152.556 365.177 179.463 321.657 192.381Z" fill="#003E73"/>
<path d="M286.25 72.684C331.147 47.1087 373.69 45.0928 412.665 70.3828C395.71 35.4327 373.691 15.1816 340.953 8.86153C303.725 1.57512 266.501 12.0564 229.359 40.4941C197.393 64.9686 171.757 115.678 173.717 159.835C174.426 188.775 183.939 215.732 215.808 243.233C208.871 215.75 211.678 188.768 213.423 177.487C221.805 134.141 248.123 95.3854 286.25 72.684Z" fill="#003E73"/>
<path d="M160.343 43.052C97.0518 77.0951 65.3885 102.408 18.9673 151.502C54.1581 211.538 83.6853 236.072 161.662 256.261C148.99 242.361 122.945 203.689 120.14 160.2C117.335 116.71 146.212 63.4326 160.343 43.052Z" fill="#045599"/>
<path d="M537.841 108.779C498.761 43.2899 466.461 20.9033 394.656 0.565857C407.776 16.8106 437.819 59.3089 436.756 101.999C435.624 147.408 411.427 195.335 397.805 214.905C456.85 183.817 488.405 159.938 537.841 108.779Z" fill="#FFA760"/>
<path d="M314.716 192.304C343.972 121.214 346.695 87.0556 312.454 35.485L376.357 40.8573C402.627 69.5123 405.122 94.0355 395 144.849L314.716 192.304Z" fill="#FFA760"/>
<path d="M302.052 186.452C262.822 197.782 225.1 189.963 193.557 161.094L169.125 206.502C192.843 239.893 211.545 256.979 261.125 261.174C307.561 263.093 351.622 226.073 370.196 197.037C390.463 165.355 400.529 141.299 400.172 99.8753C374.494 146.754 345.574 173.534 302.052 186.452Z" fill="#4478BB"/>
<path d="M266.647 66.7554C311.544 41.1801 356.011 42.2557 394.986 67.5457C378.03 32.5956 354.087 9.25293 321.35 2.93291C284.122 -4.3535 246.899 6.12776 209.757 34.5654C177.792 59.0399 152.156 109.75 154.116 153.907C154.826 182.846 164.338 209.804 196.206 237.305C189.269 209.822 192.077 182.839 193.821 171.558C202.204 128.212 228.521 89.4567 266.647 66.7554Z" fill="#045599"/>
<path d="M415.042 220.305L397.723 214.908L423.268 200.642L457.593 179.914L432.6 207.382L415.042 220.305Z" fill="#FF9B4A"/>
<path d="M160.359 43.0474L182.764 49.2547C182.764 49.2547 175.671 52.6097 171.442 55.3109C163.646 60.2916 159.387 65.624 153.469 70.7933C140.959 84.5271 129.961 104.323 126.072 113.616L142.386 58.5298L160.359 43.0474Z" fill="#045599"/>
</svg>
