<svg width="12" height="12" viewBox="0 0 12 12" fill="none" xmlns="http://www.w3.org/2000/svg">
<path d="M3.04842 1.91676C3.04827 2.22618 2.9252 2.52287 2.7063 2.74155C2.4874 2.96023 2.19059 3.083 1.88117 3.08285C1.57175 3.08269 1.27507 2.95963 1.05638 2.74072C0.837701 2.52182 0.714933 2.22501 0.715088 1.9156C0.715243 1.60618 0.838307 1.30949 1.05721 1.09081C1.27611 0.872125 1.57292 0.749357 1.88234 0.749512C2.19176 0.749667 2.48844 0.872731 2.70712 1.09163C2.92581 1.31053 3.04858 1.60734 3.04842 1.91676V1.91676ZM3.08342 3.94676H0.750088V11.2501H3.08342V3.94676ZM6.77009 3.94676H4.44842V11.2501H6.74675V7.4176C6.74675 5.2826 9.52925 5.08426 9.52925 7.4176V11.2501H11.8334V6.62426C11.8334 3.02509 7.71509 3.15926 6.74675 4.92676L6.77009 3.94676V3.94676Z" fill="#171717"/>
</svg>
