<svg width="48" height="44" viewBox="0 0 48 44" fill="none" xmlns="http://www.w3.org/2000/svg">
<path d="M46.5 13.8958C46.3784 11.944 43.9148 8.59215 41.645 6.57076C39.3752 4.54937 34.4753 4.15236 30.7311 4.44001C26.9869 4.72766 21.939 7.58801 20.7199 12.4847C20.036 15.2318 19.6063 18.8717 19.6063 21.7649C19.6553 22.8529 19.704 23.9351 19.704 25.0179H28.3738L14.1869 43.9997L0 25.0179H9.45794C9.45794 19.4815 8.83025 15.9051 12.1637 9.5931C15.4972 3.28096 23.194 0.499695 29.9501 0.499695C36.1446 0.499695 40.236 2.68997 42.8065 5.50136C45.3538 8.28741 46.3588 11.6294 46.5 13.8958Z" fill="url(#paint0_radial_46_926)"/>
<path d="M46.5 13.8958C46.3784 11.944 43.9148 8.59215 41.645 6.57076C39.3752 4.54937 34.4753 4.15236 30.7311 4.44001C26.9869 4.72766 21.939 7.58801 20.7199 12.4847C20.036 15.2318 19.6063 18.8717 19.6063 21.7649C19.6553 22.8529 19.704 23.9351 19.704 25.0179H28.3738L14.1869 43.9997L0 25.0179H9.45794C9.45794 19.4815 8.83025 15.9051 12.1637 9.5931C15.4972 3.28096 23.194 0.499695 29.9501 0.499695C36.1446 0.499695 40.236 2.68997 42.8065 5.50136C45.3538 8.28741 46.3588 11.6294 46.5 13.8958Z" fill="url(#paint1_radial_46_926)"/>
<path d="M40.992 25.01C40.992 9.23821 34.0278 5.1741 24.418 7.00006C29.808 2.67766 38.4094 4.34497 41.0972 6.14863C43.9572 8.06786 45.8715 11.4061 46.5093 13.4752C47.4023 16.3718 48.0732 22.2926 48.0016 25.01H40.992Z" fill="url(#paint2_radial_46_926)"/>
<path d="M40.574 24.7429C40.574 8.97112 33.6098 4.90701 24 6.73297C29.39 2.41057 37.9914 4.07788 40.6792 5.88154C43.5392 7.80077 45.4535 11.139 46.0913 13.2081C46.9843 16.1047 47.6552 22.0255 47.5836 24.7429H40.574Z" fill="url(#paint3_radial_46_926)"/>
<defs>
<radialGradient id="paint0_radial_46_926" cx="0" cy="0" r="1" gradientUnits="userSpaceOnUse" gradientTransform="translate(14.25 43.9997) rotate(-37.9542) scale(47.5585 84.5999)">
<stop stop-color="#FFEE2D"/>
<stop offset="1" stop-color="#FFEE2D"/>
</radialGradient>
<radialGradient id="paint1_radial_46_926" cx="0" cy="0" r="1" gradientUnits="userSpaceOnUse" gradientTransform="translate(12.75 43.9997) rotate(-58.134) scale(32.6745 99.4234)">
<stop stop-color="#FFEB06"/>
<stop offset="1" stop-color="white" stop-opacity="0"/>
</radialGradient>
<radialGradient id="paint2_radial_46_926" cx="0" cy="0" r="1" gradientUnits="userSpaceOnUse" gradientTransform="translate(43.1223 25.01) rotate(-132.254) scale(26.2213 26.7629)">
<stop stop-color="#FFC711" stop-opacity="0.87"/>
<stop offset="1" stop-color="#FFD449"/>
</radialGradient>
<radialGradient id="paint3_radial_46_926" cx="0" cy="0" r="1" gradientUnits="userSpaceOnUse" gradientTransform="translate(43.2193 24.7428) rotate(-114.765) scale(14.964 37.9212)">
<stop stop-color="#FFD449"/>
<stop offset="1" stop-color="#FAFF00" stop-opacity="0"/>
</radialGradient>
</defs>
</svg>
