<svg width="12" height="12" viewBox="0 0 12 12" fill="none" xmlns="http://www.w3.org/2000/svg">
<path d="M6.00008 0.166504C2.77717 0.166504 0.166749 2.77692 0.166749 5.99984C0.166087 7.22441 0.551057 8.41811 1.26704 9.41156C1.98303 10.405 2.99367 11.1478 4.15558 11.5345C4.44725 11.5853 4.55633 11.4103 4.55633 11.2568C4.55633 11.1186 4.54875 10.6595 4.54875 10.1707C3.08342 10.4408 2.70425 9.81367 2.58758 9.48525C2.52167 9.31725 2.23758 8.79984 1.98967 8.661C1.7855 8.55192 1.49383 8.28184 1.98208 8.27484C2.44175 8.26725 2.76958 8.69775 2.87925 8.87275C3.40425 9.75475 4.24308 9.50684 4.57792 9.354C4.62925 8.97484 4.78208 8.71992 4.95008 8.57409C3.65217 8.42825 2.29592 7.92484 2.29592 5.69359C2.29592 5.05892 2.52167 4.5345 2.89383 4.12559C2.8355 3.97975 2.63133 3.38184 2.95217 2.57975C2.95217 2.57975 3.44042 2.42692 4.55633 3.17825C5.0312 3.04646 5.52185 2.98012 6.01467 2.98109C6.5105 2.98109 7.00633 3.04642 7.473 3.17767C8.58833 2.41934 9.07717 2.58034 9.07717 2.58034C9.398 3.38242 9.19383 3.98034 9.1355 4.12617C9.50708 4.5345 9.73342 5.05192 9.73342 5.69359C9.73342 7.93242 8.37017 8.42825 7.07225 8.57409C7.28342 8.75609 7.466 9.10609 7.466 9.65325C7.466 10.4332 7.45842 11.0603 7.45842 11.2574C7.45842 11.4103 7.56808 11.5923 7.85975 11.5339C9.01768 11.143 10.0239 10.3987 10.7367 9.40601C11.4495 8.41327 11.8331 7.22199 11.8334 5.99984C11.8334 2.77692 9.223 0.166504 6.00008 0.166504Z" fill="#171717"/>
</svg>
