<svg width="54" height="60" viewBox="0 0 54 60" fill="none" xmlns="http://www.w3.org/2000/svg">
<path fill-rule="evenodd" clip-rule="evenodd" d="M27.0001 0L10.8826 9.19024L16.8083 12.5854L27.0001 6.79025L37.1919 12.5854L43.1175 9.19024L27.0001 0ZM37.1919 17.3854L43.1175 20.7806V27.5708L32.9254 33.3659V44.9562L27.0001 48.3514L21.0746 44.9562V33.3659L10.8826 27.5708V20.7806L16.8083 17.3854L27.0001 23.1804L37.1919 17.3854ZM43.1175 32.3708V39.1611L37.1919 42.5564V35.7659L43.1175 32.3708ZM37.1327 47.356L47.3247 41.561V29.9707L53.25 26.5756V44.9562L37.1327 54.1462V47.356ZM47.3247 18.3806L41.3991 14.9854L47.3247 11.5903L53.25 14.9854V21.7757L47.3247 25.1709V18.3806ZM21.0746 56.605V49.8147L27.0001 53.2098L32.9254 49.8147V56.605L27.0001 60L21.0746 56.605ZM16.8083 42.5564L10.8826 39.1611V32.3708L16.8083 35.7659V42.5564ZM27.0001 18.3806L21.0746 14.9854L27.0001 11.5903L32.9254 14.9854L27.0001 18.3806ZM12.601 14.9854L6.67549 18.3806V25.1709L0.75 21.7757V14.9854L6.67549 11.5903L12.601 14.9854ZM0.75 26.5756L6.67549 29.9707V41.561L16.8673 47.356V54.1462L0.75 44.9562V26.5756Z" fill="#4478BB"/>
</svg>
