<svg width="84" height="40" viewBox="0 0 84 40" fill="none" xmlns="http://www.w3.org/2000/svg">
<path d="M24.0534 6.76029C14.4668 11.8572 9.66831 15.6471 2.62972 22.9973C7.93617 31.9859 12.3964 35.6592 24.1886 38.6819C22.2755 36.6008 18.3464 30.8109 17.9351 24.2996C17.5238 17.7883 21.9091 9.81165 24.0534 6.76029Z" fill="#045599"/>
<path d="M81.2588 16.6008C75.3655 6.79587 70.4851 3.44414 59.6267 0.399231C61.607 2.83139 66.1399 9.19423 65.9661 15.5858C65.7812 22.3844 62.1055 29.56 60.0385 32.49C68.9818 27.8356 73.7634 24.2604 81.2588 16.6008Z" fill="#FFA760"/>
<path d="M47.4407 29.1062C51.8874 18.4627 52.3095 13.3485 47.1458 5.62732L56.8101 6.43165C60.7752 10.7219 61.145 14.3935 59.5987 22.0013L47.4407 29.1062Z" fill="#FFA760"/>
<path d="M45.5245 28.2301C39.5802 29.9263 33.8699 28.7557 29.1018 24.4335L25.388 31.232C28.9699 36.2312 31.7969 38.7894 39.304 39.4175C46.3357 39.7047 53.0194 34.1621 55.841 29.8149C58.9198 25.0714 60.4515 21.4698 60.41 15.2678C56.5071 22.2865 52.1194 26.296 45.5245 28.2301Z" fill="#4478BB"/>
<path d="M40.1788 10.3091C46.9826 6.48001 53.7135 6.64106 59.6055 10.4275C57.0495 5.19475 53.4322 1.69989 48.4786 0.753657C42.8455 -0.337264 37.2078 1.23199 31.577 5.48967C26.7309 9.15399 22.835 16.7462 23.1185 23.3574C23.2171 27.6903 24.6488 31.7263 29.4645 35.8438C28.4228 31.729 28.8559 27.6892 29.1234 26.0002C30.4053 19.5104 34.4007 13.708 40.1788 10.3091Z" fill="#045599"/>
<path d="M62.6601 33.2985L60.0386 32.4905L63.9119 30.3545L69.1167 27.2511L65.3232 31.3636L62.6601 33.2985Z" fill="#FF9B4A"/>
<path d="M24.0534 6.75957L27.4412 7.68892C27.4412 7.68892 26.367 8.19123 25.7265 8.59565C24.5454 9.34136 23.8995 10.1397 23.0027 10.9137C21.1059 12.9699 19.4361 15.9337 18.845 17.3251L21.3296 9.07759L24.0534 6.75957Z" fill="#045599"/>
</svg>
