<svg width="45" height="58" viewBox="0 0 45 58" fill="none" xmlns="http://www.w3.org/2000/svg">
<g clip-path="url(#clip0_61_917)">
<path d="M27.0549 6.41723L22.1522 0.87291L17.3702 6.28059L22.273 11.8249L27.0549 6.41723Z" fill="#171923"/>
<path d="M-0.00682924 22.3859L-0.0422363 32.0803L19.0883 13.871L14.0763 8.96776L-0.00682924 22.3859Z" fill="#171923"/>
<path d="M15.6393 29.9381L15.6611 20.8603L-0.00524902 36.029L4.67871 40.5738L15.6393 29.9381Z" fill="#171923"/>
<path d="M27.4296 53.1051L4.89945 31.355L0.0256348 36.06L22.5558 57.81L27.4296 53.1051Z" fill="#171923"/>
<path d="M27.0549 36.8775L22.2125 42.6273L17.655 37.0144V31.355L19.3641 19.902L22.7822 18.1223L25.2034 21.271V29.8956L27.0549 36.8775Z" fill="#171923"/>
<path d="M25.0609 8.16447L22.0328 5.25371L19.0792 8.09273L22.1074 11.0035L25.0609 8.16447Z" fill="#171923"/>
<path d="M-0.0422363 26.747L-0.0421828 32.0803L19.0884 13.871L16.5156 11.4142L-0.0422363 26.747Z" fill="#171923"/>
<path d="M15.6394 29.9381V25.2411L5.2644 35.7824L7.40073 37.8358L15.6394 29.9381Z" fill="#171923"/>
<path d="M27.4294 53.1051L7.32336 33.6952L4.82178 36.1101L24.9278 55.52L27.4294 53.1051Z" fill="#171923"/>
<path d="M18.0823 31.9491L22.7822 35.9192L26.77 31.1277L26.0579 36.8775L22.2125 42.7642C19.6489 39.8893 20.2186 39.8893 17.655 37.0144L18.0823 31.9491Z" fill="#171923"/>
<path d="M16.1907 6.8329L22.3647 0.87262L28.3866 6.68601L22.2126 12.6463L16.1907 6.8329Z" fill="#171923"/>
<path d="M45.0018 22.3859L45.0371 32.0803L25.9065 13.871L30.9185 8.96776L45.0018 22.3859Z" fill="#171923"/>
<path d="M29.3556 29.9381L29.3336 20.8603L45 36.029L40.316 40.5738L29.3556 29.9381Z" fill="#171923"/>
<path d="M17.5652 53.1051L40.0953 31.355L44.9692 36.06L22.4974 57.9601L17.5652 53.1051Z" fill="#171923"/>
<path d="M17.3702 37.0144L22.2126 42.7642L27.3398 37.0144V31.355V19.9667L22.3554 14.5629L17.3822 19.9667L17.3702 31.4057V37.0144Z" fill="#171923"/>
<path d="M18.4762 9.03934L22.3069 5.34126L26.0432 8.94819L22.2125 12.6463L18.4762 9.03934Z" fill="#171923"/>
<path d="M45.037 26.747V32.0803L25.9064 13.871L28.479 11.4141L45.037 26.747Z" fill="#171923"/>
<path d="M29.3556 29.9381V25.2411L39.7304 35.7823L37.5941 37.8358L29.3556 29.9381Z" fill="#171923"/>
<path d="M19.9337 50.7044L37.6713 33.6951L40.1731 36.1101L22.2125 52.8948L19.9337 50.7044Z" fill="#171923"/>
<path d="M27.3398 29.7587L22.2126 35.9192L17.3702 29.8956V37.0144L22.2126 42.7642C24.7762 39.8893 24.7762 39.8893 27.3398 37.0144V29.7587Z" fill="#171923"/>
</g>
<defs>
<clipPath id="clip0_61_917">
<rect width="45" height="58" fill="white"/>
</clipPath>
</defs>
</svg>
